<svg width="360" height="667" viewBox="0 0 360 667" fill="none" xmlns="http://www.w3.org/2000/svg" xmlns:xlink="http://www.w3.org/1999/xlink">
<style>.vibro_213 {
	animation: 1s linear 0s 1 normal forwards running vibro_213;
		width: 1px;
		height: 1px;
}
@keyframes vibro_213 {
	0% {
		width: 1px;
		height: 1px;
	}
	80% {
		width: 245px;
		height: 280px;
	}
	100% {
		width: 245px;
		height: 280px;
	}
}.vibro_25 {
	animation: 1s linear 0s 1 normal forwards running vibro_25;
		width: 1px;
		height: 1px;
}
@keyframes vibro_25 {
	0% {
		width: 1px;
		height: 1px;
	}
	83% {
		width: 189px;
		height: 216px;
	}
	100% {
		width: 189px;
		height: 216px;
	}
}.Group_7_497 {
	animation: 1s linear 0s 1 normal forwards running Group_7_497;
		width: 1px;
		height: 1px;
}
@keyframes Group_7_497 {
	0% {
		width: 1px;
		height: 1px;
	}
	40% {
		width: 0.1px;
		height: 0.1px;
	}
	100% {
		width: 99.5px;
		height: 41.83px;
	}
}.Elemento_Vibra_324 {
	animation: 1s linear 0s 1 normal forwards running Elemento_Vibra_324;
		width: 1px;
		height: 1px;
}
@keyframes Elemento_Vibra_324 {
	0% {
		width: 1px;
		height: 1px;
	}
	65% {
		width: 307.78px;
		height: 352.92px;
	}
	100% {
		width: 307.78px;
		height: 352.92px;
	}
}.Elemento_Vibra_220 {
	animation: 1s linear 0s 1 normal forwards running Elemento_Vibra_220;
		width: 1px;
		height: 1px;
}
@keyframes Elemento_Vibra_220 {
	0% {
		width: 1px;
		height: 1px;
	}
	50% {
		width: 358.22px;
		height: 410.76px;
	}
	100% {
		width: 358.22px;
		height: 410.76px;
	}
}
</style>
<g clip-path="url(#clip_0_538)" width="360" height="667" data-name="s2">
	<rect width="360" height="667" fill="#1D1F30" data-name="s2"/>
	<rect width="360" height="376" fill="url(#paint_linear___725)" data-name="Rectangle 14"/>
	<path d="M7.98691 7.13949C3.31064 11.5926 0.972504 17.1106 0.972504 23.6935C0.972504 30.2764 3.31064 35.7944 7.98691 40.2476C12.6632 44.7007 19.8443 43.2788 24.411 46.6822C28.9776 50.0856 36.5317 56.8076 41.0131 52.3545C45.6894 47.9014 48.0275 30.2764 48.0275 23.6935C48.0275 17.1106 45.6894 11.5926 41.0131 7.13949C36.5317 2.49274 31.076 0.169373 24.6461 0.169373C18.2163 0.169373 12.6632 2.49274 7.98691 7.13949Z" fill="url(#paint_linear___179)" data-name="vibro." class="vibro_213" transform="translate(156.97 320.17)"/>
	<path d="M6.14637 6.15329C2.64799 9.48223 0.898804 13.6072 0.898804 18.5282C0.898804 23.4493 2.64799 27.5743 6.14637 30.9032C9.64474 34.2322 15.017 33.1693 18.4334 35.7134C21.8498 38.2576 27.501 43.2827 30.8536 39.9538C34.352 36.6248 36.1012 23.4493 36.1012 18.5282C36.1012 13.6072 34.352 9.48223 30.8536 6.15329C27.501 2.67962 23.4196 0.94278 18.6093 0.94278C13.7991 0.94278 9.64474 2.67962 6.14637 6.15329Z" fill="url(#paint_linear___521)" data-name="vibro." class="vibro_25" transform="translate(162.9 326.94)"/>
	<g transform="translate(180.25 332.42)" class="Group_7_497" width="1" height="1" data-name="Group 7">
		<path d="M0.0757263 0.786295C0.0757263 0.797047 0.0759146 0.807352 0.0762914 0.817208C0.0770449 0.827065 0.0781751 0.836025 0.0796821 0.844089C0.0815659 0.851258 0.0840147 0.85753 0.0870287 0.862906C0.0904194 0.867386 0.0949404 0.869627 0.100592 0.869627C0.103606 0.869627 0.10662 0.868731 0.109634 0.866938C0.113024 0.86425 0.116038 0.860218 0.118676 0.854842C0.120182 0.86201 0.121124 0.869178 0.121501 0.876347C0.121878 0.882619 0.122066 0.88934 0.122066 0.896508C0.122066 0.925181 0.116603 0.948926 0.105678 0.967743C0.094752 0.98656 0.0808124 0.995969 0.0638587 0.995969C0.0435144 0.995969 0.0276909 0.981632 0.0163885 0.952958C0.00546284 0.923389 0 0.880379 0 0.823928V0.317216C0.00188374 0.31632 0.0035791 0.315872 0.00508609 0.315872H0.0101722C0.0305166 0.315872 0.0465283 0.328865 0.0582075 0.35485C0.0698867 0.380835 0.0757263 0.420709 0.0757263 0.474472V0.786295ZM0.128848 0.47044C0.128848 0.442662 0.13092 0.418917 0.135064 0.399204C0.139208 0.379491 0.144671 0.363363 0.151453 0.350818C0.158234 0.338273 0.165957 0.329313 0.174623 0.323937C0.183288 0.318561 0.192141 0.315872 0.201183 0.315872H0.204574V0.690866C0.204574 0.763446 0.198169 0.814968 0.18536 0.845433C0.17255 0.875899 0.153713 0.891132 0.128848 0.891132V0.47044Z" fill="#FCFCFC" data-name="vibro." transform="translate(0 0.02)"/>
		<path d="M0.23468 0.315872H0.240896C0.260487 0.315872 0.276876 0.328417 0.290062 0.353506C0.303625 0.378595 0.310406 0.418469 0.310406 0.473128V0.998657H0.307015C0.29835 0.998657 0.289685 0.995969 0.28102 0.990592C0.272731 0.985216 0.265008 0.976704 0.25785 0.965055C0.251068 0.95251 0.245417 0.93683 0.240896 0.918013C0.236752 0.8983 0.23468 0.874107 0.23468 0.845433V0.315872Z" fill="#FCFCFC" data-name="vibro." transform="translate(0 0.02)"/>
		<path d="M0.421753 0.998657H0.415536C0.405741 0.998657 0.396511 0.995072 0.387845 0.987904C0.379557 0.980736 0.37221 0.970879 0.365806 0.958335C0.359778 0.94579 0.35488 0.930557 0.351113 0.912637C0.347722 0.894716 0.346026 0.875003 0.346026 0.853498V0.192219C0.346026 0.159065 0.347722 0.131736 0.351113 0.110231C0.35488 0.0878297 0.359778 0.0703568 0.365806 0.0578123C0.37221 0.0452677 0.379557 0.0363073 0.387845 0.030931C0.396134 0.0255548 0.405176 0.0228667 0.414971 0.0228667H0.421753V0.998657ZM0.550601 0.82124C0.550601 0.883067 0.544572 0.928317 0.532517 0.956991C0.520461 0.984768 0.50313 0.998657 0.480525 0.998657C0.466209 0.998657 0.453965 0.989248 0.443792 0.970431C0.43362 0.951614 0.428534 0.927869 0.428534 0.899196C0.428534 0.883963 0.429853 0.870075 0.43249 0.85753C0.437388 0.867386 0.443227 0.872315 0.450009 0.872315C0.457544 0.872315 0.463572 0.865146 0.468093 0.85081C0.472614 0.836473 0.474874 0.81452 0.474874 0.784951V0.514794C0.474874 0.495081 0.473179 0.478504 0.469788 0.465063C0.466774 0.451623 0.460935 0.444006 0.452269 0.442214H0.450009C0.443227 0.442214 0.437199 0.447143 0.431925 0.456999C0.430418 0.449831 0.429476 0.44311 0.429099 0.436838C0.428723 0.42967 0.428534 0.422501 0.428534 0.415333C0.428534 0.38666 0.43362 0.362915 0.443792 0.344098C0.453965 0.325281 0.466209 0.315872 0.480525 0.315872C0.50313 0.315872 0.520461 0.329761 0.532517 0.357538C0.544572 0.385316 0.550601 0.420709 0.550601 0.463719V0.82124Z" fill="#FCFCFC" data-name="vibro." transform="translate(0 0.02)"/>
		<path d="M0.583885 0.315872H0.590102C0.609692 0.315872 0.626081 0.328417 0.639267 0.353506C0.65283 0.378595 0.659612 0.418469 0.659612 0.473128V0.998657H0.656221C0.647556 0.998657 0.63889 0.995969 0.630225 0.990592C0.621937 0.985216 0.614213 0.976704 0.607055 0.965055C0.600274 0.95251 0.594623 0.93683 0.590102 0.918013C0.585957 0.8983 0.583885 0.874107 0.583885 0.845433V0.315872ZM0.77094 0.43415C0.77094 0.459239 0.768868 0.4794 0.764724 0.494633C0.76058 0.509866 0.755494 0.521962 0.749466 0.530923C0.743815 0.538987 0.737598 0.544363 0.730817 0.547051C0.724035 0.549739 0.718196 0.551084 0.713298 0.551084C0.708024 0.551084 0.703503 0.550187 0.699735 0.548395V0.500009C0.699735 0.4794 0.698228 0.466408 0.695214 0.461031C0.692577 0.455655 0.689186 0.452967 0.685042 0.452967C0.681274 0.452967 0.67826 0.454759 0.676 0.458343C0.674116 0.461927 0.671856 0.467304 0.669219 0.474472C0.668088 0.467304 0.667335 0.460135 0.666958 0.452967C0.666958 0.444903 0.666958 0.437286 0.666958 0.430118C0.666958 0.418469 0.667712 0.405925 0.669219 0.392484C0.671102 0.379043 0.673928 0.366947 0.677695 0.356194C0.68184 0.344546 0.687114 0.335137 0.693519 0.327969C0.699923 0.319905 0.708024 0.315872 0.717819 0.315872C0.735903 0.315872 0.749277 0.327521 0.757943 0.350818C0.766608 0.373219 0.77094 0.400996 0.77094 0.43415Z" fill="#FCFCFC" data-name="vibro." transform="translate(0 0.02)"/>
		<path d="M0.924274 0.52689C0.924274 0.516138 0.923897 0.505833 0.923143 0.495977C0.922767 0.48612 0.921636 0.477608 0.919753 0.47044C0.918246 0.462375 0.915797 0.456103 0.912406 0.451623C0.909392 0.446247 0.90506 0.443558 0.899408 0.443558C0.896394 0.443558 0.893192 0.444902 0.889801 0.447591C0.886787 0.449383 0.883962 0.452967 0.881324 0.458343C0.879817 0.451175 0.878876 0.444454 0.878499 0.438182C0.878122 0.431014 0.877934 0.423846 0.877934 0.416677C0.877934 0.388004 0.88302 0.364259 0.893192 0.345442C0.903364 0.326625 0.915608 0.317216 0.929925 0.317216C0.95253 0.317216 0.96986 0.331105 0.981916 0.358882C0.993972 0.385764 1 0.424742 1 0.475816V1C0.991335 1 0.982481 0.997761 0.973439 0.99328C0.964774 0.987904 0.956674 0.979392 0.949139 0.967743C0.941981 0.955199 0.935953 0.93907 0.931055 0.919357C0.926534 0.898748 0.924274 0.872763 0.924274 0.841401V0.52689ZM0.871152 0.790327C0.871152 0.801079 0.871341 0.811384 0.871717 0.82124C0.872471 0.831097 0.873601 0.840057 0.875108 0.848121C0.876992 0.85529 0.879441 0.861562 0.882455 0.866938C0.885845 0.871419 0.890366 0.873659 0.896018 0.873659C0.899032 0.873659 0.902046 0.872763 0.90506 0.870971C0.90845 0.868282 0.911464 0.86425 0.914102 0.858874C0.915608 0.866042 0.91655 0.873211 0.916927 0.880379C0.917304 0.886651 0.917492 0.893372 0.917492 0.90054C0.917492 0.929213 0.912406 0.952958 0.902234 0.971775C0.892062 0.990592 0.879817 1 0.865501 1C0.842896 1 0.825566 0.985664 0.81351 0.956991C0.801454 0.928317 0.795426 0.892476 0.795426 0.849466V0.475816C0.795426 0.446247 0.797687 0.421605 0.802207 0.401892C0.807105 0.381284 0.813133 0.364707 0.820291 0.352162C0.827826 0.339618 0.835926 0.330657 0.844592 0.325281C0.853634 0.319905 0.862487 0.317216 0.871152 0.317216V0.790327Z" fill="#FCFCFC" data-name="vibro." transform="translate(0 0.02)"/>
		<path d="M0.238983 0.0327379C0.229769 0.0536537 0.225162 0.0795712 0.225162 0.11049C0.225162 0.141409 0.229769 0.167327 0.238983 0.188243C0.248197 0.209159 0.262346 0.20248 0.271344 0.218466C0.280342 0.234451 0.295226 0.266024 0.304056 0.245108C0.31327 0.224192 0.317877 0.141409 0.317877 0.11049C0.317877 0.0795712 0.31327 0.0536537 0.304056 0.0327379C0.295226 0.0109126 0.284476 0 0.271807 0C0.259138 0 0.248197 0.0109126 0.238983 0.0327379Z" fill="#423FFF" data-name="vibro." transform="translate(0.23 0)"/>
	</g>
	<path opacity="0.6" d="M16.7013 16.5049C8.73161 24.1403 4.72369 33.6927 4.72369 44.8953C4.72369 56.1124 8.74192 65.6749 16.732 73.3151C21.2228 77.6093 26.8192 78.9414 31.3375 79.9049C31.671 79.976 31.9977 80.0451 32.318 80.1129C36.7062 81.0419 39.8668 81.711 42.324 83.5499C42.9611 84.0266 43.6717 84.5758 44.4409 85.1701C47.5634 87.583 51.6496 90.7405 55.6865 92.8204C58.2448 94.1384 61.1597 95.2381 64.1543 95.36C67.3046 95.4882 70.4294 94.5183 73.0138 91.956C75.4821 89.5795 77.2983 85.8831 78.6869 82.0961C80.1281 78.1655 81.2983 73.5926 82.2193 69.0158C84.0556 59.8899 84.9911 50.2881 84.9911 44.8953C84.9911 33.7071 80.9935 24.1649 73.0443 16.5344C65.4231 8.62916 56.025 4.61752 45.0818 4.61752C34.1293 4.61752 24.6041 8.63345 16.7013 16.5049Z" stroke="url(#paint0_linear_57_498)" stroke-width="8" data-name="Elemento Vibra" class="Elemento_Vibra_324" transform="translate(144.72 312.62) rotate(-0.7)"/>
	<path opacity="0.36" d="M35.0194 35.1061C14.366 54.8912 4.01704 79.498 4.01704 108.659C4.01704 137.835 14.3763 162.452 35.0501 182.242C45.883 192.611 59.5205 196.011 72.0425 198.684C73.1012 198.91 74.1498 199.131 75.1877 199.35C86.8045 201.795 97.0861 203.96 105.192 210.032C107.114 211.472 109.2 213.084 111.414 214.796C120.046 221.467 130.635 229.652 141.157 235.079C147.811 238.511 154.814 241.054 161.633 241.332C168.609 241.617 175.294 239.514 180.917 233.914C186.558 228.498 191.148 219.517 194.913 209.236C198.733 198.808 201.885 186.525 204.391 174.055C209.398 149.145 211.919 123.032 211.919 108.659C211.919 79.5124 201.581 54.9155 180.948 35.1355C161.172 14.5525 136.974 4.20078 108.589 4.20078C80.1942 4.20078 55.6059 14.5567 35.0194 35.1061Z" stroke="url(#paint0_linear_57_499)" stroke-width="8" data-name="Elemento Vibra" class="Elemento_Vibra_220" transform="translate(80.02 240.2) rotate(-0.7)"/>
</g>
<defs><clipPath id="clip_0_538"><rect width="360" height="667"/></clipPath>
<linearGradient id="paint_linear___725" x1="180" y1="0" x2="180" y2="376" gradientUnits="userSpaceOnUse">
<stop stop-color="#4A5AFF" stop-opacity="0.16"/>
<stop offset="1" stop-color="#4A5AFF" stop-opacity="0"/>
</linearGradient>

<linearGradient id="paint_linear___179" x1="24.5" y1="0.169373" x2="24.5" y2="53.8306" gradientUnits="userSpaceOnUse">
<stop stop-color="#4A5AFF" stop-opacity="0.16"/>
<stop offset="1" stop-color="#4A5AFF" stop-opacity="0"/>
</linearGradient>

<linearGradient id="paint_linear___521" x1="18.5" y1="0.94278" x2="18.5" y2="41.0572" gradientUnits="userSpaceOnUse">
<stop stop-color="#4A5AFF" stop-opacity="0.16"/>
<stop offset="1" stop-color="#4A5AFF" stop-opacity="0"/>
</linearGradient>

<linearGradient id="paint0_linear_57_498" x1="44.8574" y1="8.61752" x2="44.8574" y2="91.3712" gradientUnits="userSpaceOnUse">
<stop stop-color="#4A5AFF" stop-opacity="0.16"/>
<stop offset="1" stop-color="#4A5AFF" stop-opacity="0"/>
</linearGradient>

<linearGradient id="paint0_linear_57_499" x1="107.968" y1="8.20078" x2="107.968" y2="237.358" gradientUnits="userSpaceOnUse">
<stop stop-color="#4A5AFF" stop-opacity="0.16"/>
<stop offset="1" stop-color="#4A5AFF" stop-opacity="0"/>
</linearGradient>

</defs>
</svg>